<svg xmlns="http://www.w3.org/2000/svg" fill="none" viewBox="2.93 3 140.1 43.01">
<path d="M4.368 6.12C4.624 6.056 4.912 5.992 5.232 5.928C5.552 5.832 5.888 5.736 6.24 5.64C6.88 5.512 7.328 5.4 7.584 5.304C7.84 5.176 8.128 5.096 8.448 5.064C8.8 5 9.088 4.968 9.312 4.968C9.568 4.936 9.92 4.92 10.368 4.92C10.4 5.048 10.448 5.192 10.512 5.352C10.608 5.48 10.656 5.624 10.656 5.784C11.008 6.552 11.344 6.984 11.664 7.08C11.984 7.176 12.272 7.128 12.528 6.936C12.784 6.744 12.992 6.504 13.152 6.216C13.344 5.928 13.472 5.784 13.536 5.784H17.472L21.696 8.712C21.952 8.872 22.224 9.08 22.512 9.336C22.8 9.592 23.12 9.896 23.472 10.248C24.144 10.952 24.592 11.288 24.816 11.256L24.528 13.56C24.528 13.592 24.576 13.624 24.672 13.656C24.768 13.688 24.864 13.784 24.96 13.944C25.088 14.072 25.184 14.28 25.248 14.568C25.344 14.856 25.36 15.272 25.296 15.816C25.2 16.936 25.2 17.928 25.296 18.792C25.392 19.656 25.44 20.36 25.44 20.904C25.44 20.936 25.104 21.112 24.432 21.432C23.76 21.688 23.424 22.168 23.424 22.872C23.264 22.84 22.832 22.856 22.128 22.92C21.456 22.952 20.768 23.128 20.064 23.448L18 24.264H15.072C14.464 24.264 13.936 24.344 13.488 24.504C13.04 24.632 12.672 24.776 12.384 24.936C12.096 25.096 11.872 25.256 11.712 25.416C11.552 25.544 11.2 25.608 10.656 25.608C10.72 25.96 10.784 26.2 10.848 26.328C10.752 26.616 10.608 26.984 10.416 27.432C10.256 27.848 10.176 28.136 10.176 28.296C10.176 28.488 10.176 28.76 10.176 29.112C10.208 29.464 10.24 29.912 10.272 30.456C10.304 31.032 10.176 31.512 9.888 31.896C9.6 32.248 9.456 32.536 9.456 32.76C9.552 33.176 9.632 33.64 9.696 34.152C9.792 34.632 9.888 35.112 9.984 35.592L9.264 36.984C9.2 37.016 9.136 37.032 9.072 37.032C9.04 37.032 8.992 37.048 8.928 37.08C8.224 37.304 7.68 37.416 7.296 37.416C7.232 37.416 7.104 37.416 6.912 37.416C6.752 37.384 6.56 37.352 6.336 37.32C6.112 37.288 5.904 37.272 5.712 37.272C5.52 37.24 5.392 37.224 5.328 37.224C5.264 37.224 5.12 37.304 4.896 37.464C4.704 37.624 4.48 37.768 4.224 37.896L3.072 37.416C3.008 36.904 2.976 36.328 2.976 35.688C3.008 35.048 2.992 34.504 2.928 34.056C3.024 33.928 3.152 33.672 3.312 33.288C3.472 32.872 3.52 32.312 3.456 31.608C3.392 30.872 3.408 30.28 3.504 29.832C3.6 29.384 3.648 29.032 3.648 28.776C3.648 28.68 3.6 28.424 3.504 28.008C3.44 27.56 3.424 27.208 3.456 26.952C3.488 26.856 3.568 26.728 3.696 26.568C3.824 26.408 3.888 26.2 3.888 25.944C3.856 24.92 3.84 24.104 3.84 23.496C3.84 22.888 3.776 22.264 3.648 21.624C3.616 21.496 3.632 21.368 3.696 21.24C3.792 21.08 3.84 20.872 3.84 20.616C3.84 20.36 3.936 19.768 4.128 18.84C4.352 17.88 4.368 16.552 4.176 14.856C4.016 13.192 3.888 11.896 3.792 10.968C3.696 10.04 3.664 9.48 3.696 9.288C3.76 8.936 3.776 8.664 3.744 8.472C3.712 8.28 3.696 7.992 3.696 7.608L4.368 6.12ZM17.472 21.144C17.472 20.984 17.792 20.584 18.432 19.944C19.104 19.336 19.44 18.92 19.44 18.696L18.816 14.328L18.432 12.84L14.304 8.232H12.48L11.52 8.04L11.136 8.232C11.072 8.424 11.04 9.528 11.04 11.544C11.072 13.656 11.072 14.856 11.04 15.144C10.4 15.496 10.208 16.216 10.464 17.304C10.752 18.36 10.736 19.192 10.416 19.8C10.32 19.896 10.272 20.04 10.272 20.232C10.272 20.68 10.272 21.016 10.272 21.24C10.304 21.432 10.288 21.736 10.224 22.152C10.224 22.184 10.24 22.28 10.272 22.44C10.336 22.6 10.384 22.84 10.416 23.16L12.288 22.632C12.288 22.952 12.912 22.792 14.16 22.152C14.8 21.8 15.296 21.544 15.648 21.384C16 21.224 16.208 21.144 16.272 21.144H17.472ZM48.3521 16.44V18.648H47.1041L45.2801 20.088C43.7121 20.312 42.4321 20.632 41.4401 21.048C40.4481 21.432 39.9841 21.976 40.0481 22.68C39.9841 22.84 39.9521 23.032 39.9521 23.256C39.9521 23.448 40.0641 23.544 40.2881 23.544L39.3281 28.344L38.8961 28.872V34.2L38.6081 36.888L37.6481 37.848L32.1761 37.464L30.9761 35.832L31.3121 34.968L31.1201 32.328L31.6961 27.48L32.1761 23.928C32.1761 23.832 32.1921 23.752 32.2241 23.688C32.2241 23.624 32.2241 23.544 32.2241 23.448C32.2561 23.352 32.2721 23.272 32.2721 23.208C32.4321 23.08 32.5281 22.792 32.5601 22.344C32.6241 21.896 32.6401 21.608 32.6081 21.48C32.6081 21.256 32.5921 21.048 32.5601 20.856C32.5601 20.664 32.4961 20.248 32.3681 19.608C32.3361 19.416 32.2241 19.192 32.0321 18.936C31.8721 18.648 31.6961 18.392 31.5041 18.168L32.1281 16.68H33.0401L37.9841 15.768L39.1841 16.344C39.0881 16.888 39.0721 17.352 39.1361 17.736C39.2321 18.088 39.3601 18.36 39.5201 18.552C39.7121 18.744 39.9201 18.872 40.1441 18.936C40.3681 18.968 40.5601 18.936 40.7201 18.84L41.5841 18.36C41.7441 18.296 41.7921 18.12 41.7281 17.832C41.6961 17.544 41.7121 17.176 41.7761 16.728L47.7281 15.672L48.3521 16.44ZM71.1683 26.52C70.4643 26.424 69.8403 26.552 69.2963 26.904C69.1043 27 68.9123 27.096 68.7203 27.192C68.5283 27.256 68.3363 27.32 68.1443 27.384C68.0483 27.416 67.9523 27.448 67.8563 27.48C67.7603 27.512 67.6803 27.544 67.6163 27.576L60.9443 29.592C59.0883 29.176 58.4323 29.48 58.9763 30.504C59.0723 30.728 59.2003 31.064 59.3603 31.512C59.5203 31.96 59.6483 32.28 59.7443 32.472C60.1603 32.632 60.5923 32.888 61.0403 33.24C61.4883 33.56 61.9043 33.752 62.2883 33.816L63.1523 33.72C63.3763 33.72 63.6803 33.704 64.0643 33.672C64.4803 33.64 64.8803 33.592 65.2643 33.528C65.6803 33.432 66.0483 33.32 66.3683 33.192C66.7203 33.064 66.9603 32.904 67.0883 32.712C67.1843 32.552 67.3283 32.44 67.5203 32.376C67.7123 32.28 67.9043 32.2 68.0963 32.136C68.2243 32.104 68.3363 32.088 68.4323 32.088C68.5603 32.056 68.7043 32.024 68.8643 31.992L69.3923 33.864L68.8163 34.968C68.7843 35.032 68.6723 35.112 68.4803 35.208C68.3203 35.272 68.1283 35.368 67.9043 35.496C67.6803 35.624 67.4563 35.752 67.2323 35.88C67.0403 35.976 66.8963 36.072 66.8003 36.168C66.7363 36.232 66.5603 36.264 66.2723 36.264C66.0163 36.264 65.7123 36.264 65.3603 36.264C65.0403 36.264 64.7043 36.28 64.3523 36.312C64.0003 36.344 63.7283 36.408 63.5363 36.504C63.0883 36.728 62.7363 36.872 62.4803 36.936C62.2563 37 62.0643 37.048 61.9043 37.08C61.7443 37.144 61.6323 37.128 61.5683 37.032C61.5043 37 61.3923 36.984 61.2323 36.984C61.1363 36.984 61.0083 36.984 60.8483 36.984C60.6883 36.984 60.5283 36.968 60.3683 36.936C59.9523 36.904 59.6163 36.888 59.3603 36.888C59.1043 36.856 58.9443 36.84 58.8803 36.84L54.2723 34.584C54.1763 33.624 53.7283 33.144 52.9283 33.144C52.7683 33.144 52.5763 33.016 52.3523 32.76C52.1283 32.472 51.9363 32.168 51.7763 31.848C51.6483 31.688 51.5363 31.512 51.4403 31.32C51.3443 31.096 51.2483 30.856 51.1523 30.6L50.7203 25.128L51.1523 21.912C51.1843 21.784 51.2803 21.624 51.4403 21.432C51.6323 21.112 51.8723 20.632 52.1603 19.992C52.2883 19.704 52.5443 19.432 52.9283 19.176C53.3123 18.92 53.7123 18.696 54.1283 18.504C54.5763 18.28 54.9923 18.088 55.3763 17.928C55.7923 17.736 56.0963 17.576 56.2883 17.448C56.6723 17.512 57.2323 17.096 57.9683 16.2C58.1603 15.976 58.4003 15.8 58.6883 15.672C58.9763 15.512 59.2643 15.384 59.5523 15.288C59.7123 15.224 59.8883 15.176 60.0803 15.144C60.2723 15.112 60.4483 15.08 60.6083 15.048L66.2243 15.768C66.5443 15.832 66.8803 15.928 67.2323 16.056C67.4883 16.184 67.7443 16.344 68.0003 16.536C68.2563 16.728 68.4643 16.952 68.6243 17.208C68.8483 17.752 69.1683 18.2 69.5843 18.552C70.0003 18.872 70.3363 19.096 70.5923 19.224L72.3683 22.392L71.9843 25.512L71.1683 26.52ZM64.0643 24.888L64.4483 24.6C64.5443 24.536 64.6403 24.472 64.7363 24.408C64.8323 24.312 64.9123 24.248 64.9763 24.216C65.2003 24.152 65.4563 24.024 65.7443 23.832C66.0323 23.64 66.1443 23.4 66.0803 23.112C66.0803 22.568 65.7923 21.96 65.2163 21.288C64.6403 20.616 63.8883 20.136 62.9603 19.848C62.5123 19.688 62.0803 19.608 61.6643 19.608C61.2483 19.608 60.8483 19.64 60.4643 19.704C60.1123 19.736 59.7763 19.784 59.4563 19.848C59.1683 19.912 58.9283 19.944 58.7363 19.944C58.0003 19.784 57.5843 20.12 57.4883 20.952C57.0083 21.688 56.7683 22.504 56.7683 23.4C56.8003 24.264 56.8963 25.096 57.0563 25.896C57.0563 26.344 57.1363 26.712 57.2963 27C57.4883 27.288 57.7123 27.464 57.9683 27.528C58.2243 27.592 58.4803 27.544 58.7363 27.384C59.0243 27.192 59.2643 26.856 59.4563 26.376L64.0643 24.888ZM76.9204 45.144V42.552L77.4004 34.824V30.264L78.2164 29.4C78.3124 28.856 78.3124 27.96 78.2164 26.712C78.1524 25.4 77.8804 24.744 77.4004 24.744C77.4004 24.072 77.2564 23.528 76.9684 23.112C76.6804 22.664 76.5364 22.264 76.5364 21.912C76.7604 21.688 76.9364 21.432 77.0644 21.144C77.2244 20.888 77.3524 20.568 77.4484 20.184C77.5764 19.768 77.6404 19.288 77.6404 18.744C77.6404 18.68 77.5444 18.712 77.3524 18.84C77.2884 18.872 77.2084 18.936 77.1124 19.032L76.7284 18.072C76.8884 17.656 77.0484 17.16 77.2084 16.584C77.3684 16.008 77.4964 15.464 77.5924 14.952L79.4164 14.472C79.9924 14.632 80.6644 14.824 81.4324 15.048C82.3924 15.304 83.1764 15.512 83.7844 15.672C84.4244 15.8 84.9044 15.832 85.2244 15.768V17.832L88.5844 16.104L89.9284 16.248C90.4084 16.632 90.9044 16.936 91.4164 17.16C91.9604 17.352 92.3764 17.464 92.6644 17.496C92.9524 17.528 93.2244 17.56 93.4804 17.592C93.7684 17.624 94.0084 17.656 94.2004 17.688C94.5204 17.688 94.9204 17.736 95.4004 17.832C95.8804 17.928 96.2964 18.008 96.6484 18.072L97.2244 18.936C97.4164 19.416 97.5764 19.848 97.7044 20.232C97.8644 20.616 98.0084 20.968 98.1364 21.288C98.2644 21.608 98.3924 21.912 98.5204 22.2C98.6804 22.488 98.8724 22.776 99.0964 23.064C99.0644 23.256 99.0324 23.512 99.0004 23.832C98.9684 24.12 98.9844 24.488 99.0484 24.936C99.0804 25.672 99.3204 26.104 99.7684 26.232L99.6244 27.192C99.1764 27.832 98.8084 28.424 98.5204 28.968C98.2644 29.48 98.0564 29.928 97.8964 30.312C97.8004 30.536 97.7044 30.76 97.6084 30.984C97.5444 31.176 97.4804 31.368 97.4164 31.56C97.0324 31.688 96.4404 31.896 95.6404 32.184C94.8404 32.44 93.9604 32.76 93.0004 33.144C91.1444 33.848 90.0564 34.296 89.7364 34.488C89.4804 34.68 89.2404 34.936 89.0164 35.256L88.5844 35.832C88.4884 35.864 88.3444 35.88 88.1524 35.88C87.9924 35.912 87.8324 35.928 87.6724 35.928C87.5124 35.928 87.3044 35.944 87.0484 35.976C86.5364 36.008 86.1364 36.04 85.8484 36.072C85.5604 36.104 85.2244 36.104 84.8404 36.072L84.0724 38.136V39.576L84.1204 41.544L84.3604 42.024C84.4244 42.184 84.4884 42.36 84.5524 42.552C84.6484 42.744 84.7444 42.92 84.8404 43.08L83.8804 44.904C83.7844 44.936 83.6084 44.984 83.3524 45.048C83.1924 45.08 82.9844 45.08 82.7284 45.048C82.5044 45.048 82.2484 45 81.9604 44.904C81.6404 44.84 81.3524 44.84 81.0964 44.904C80.8404 45 80.6004 45.112 80.3764 45.24C80.1844 45.4 79.9924 45.544 79.8004 45.672C79.6404 45.8 79.4964 45.864 79.3684 45.864C79.2084 45.864 79.0324 45.88 78.8404 45.912C78.6484 45.944 78.4244 45.976 78.1684 46.008L76.9204 45.144ZM91.8004 29.544L92.6644 26.76C92.6644 25.736 92.6804 24.904 92.7124 24.264C92.7444 23.624 92.7284 22.92 92.6644 22.152C92.5364 22.024 92.3764 21.864 92.1844 21.672C92.0244 21.448 91.8484 21.24 91.6564 21.048C91.4964 20.856 91.3364 20.696 91.1764 20.568C91.0484 20.44 90.9684 20.376 90.9364 20.376C90.8724 20.376 90.7284 20.344 90.5044 20.28C90.3124 20.216 90.0884 20.152 89.8324 20.088C89.5764 20.024 89.3204 19.976 89.0644 19.944C88.8084 19.88 88.6164 19.864 88.4884 19.896C88.4564 19.896 88.3924 19.96 88.2964 20.088C88.2324 20.184 88.1364 20.28 88.0084 20.376C87.9124 20.472 87.7684 20.52 87.5764 20.52C87.3844 20.488 87.1604 20.344 86.9044 20.088C86.5524 19.768 86.2804 19.64 86.0884 19.704C85.8964 19.768 85.7364 19.944 85.6084 20.232C85.4804 20.488 85.3684 20.824 85.2724 21.24C85.1764 21.624 85.0644 21.976 84.9364 22.296C84.8084 22.456 84.7124 22.552 84.6484 22.584C84.5844 22.584 84.5524 22.744 84.5524 23.064C84.5524 23.096 84.6324 23.24 84.7924 23.496C84.9524 23.752 85.1124 24.056 85.2724 24.408L84.5524 25.032L84.3604 32.088L85.5124 32.472H88.3444L91.8004 29.544ZM104.483 45.144V42.552L104.963 34.824V30.264L105.779 29.4C105.875 28.856 105.875 27.96 105.779 26.712C105.715 25.4 105.443 24.744 104.963 24.744C104.963 24.072 104.819 23.528 104.531 23.112C104.243 22.664 104.099 22.264 104.099 21.912C104.323 21.688 104.499 21.432 104.627 21.144C104.787 20.888 104.915 20.568 105.011 20.184C105.139 19.768 105.203 19.288 105.203 18.744C105.203 18.68 105.107 18.712 104.915 18.84C104.851 18.872 104.771 18.936 104.675 19.032L104.291 18.072C104.451 17.656 104.611 17.16 104.771 16.584C104.931 16.008 105.059 15.464 105.155 14.952L106.979 14.472C107.555 14.632 108.227 14.824 108.995 15.048C109.955 15.304 110.739 15.512 111.347 15.672C111.987 15.8 112.467 15.832 112.787 15.768V17.832L116.147 16.104L117.491 16.248C117.971 16.632 118.467 16.936 118.979 17.16C119.523 17.352 119.939 17.464 120.227 17.496C120.515 17.528 120.787 17.56 121.043 17.592C121.331 17.624 121.571 17.656 121.763 17.688C122.083 17.688 122.483 17.736 122.963 17.832C123.443 17.928 123.859 18.008 124.211 18.072L124.787 18.936C124.979 19.416 125.139 19.848 125.267 20.232C125.427 20.616 125.571 20.968 125.699 21.288C125.827 21.608 125.955 21.912 126.083 22.2C126.243 22.488 126.435 22.776 126.659 23.064C126.627 23.256 126.595 23.512 126.563 23.832C126.531 24.12 126.547 24.488 126.611 24.936C126.643 25.672 126.883 26.104 127.331 26.232L127.187 27.192C126.739 27.832 126.371 28.424 126.083 28.968C125.827 29.48 125.619 29.928 125.459 30.312C125.363 30.536 125.267 30.76 125.171 30.984C125.107 31.176 125.043 31.368 124.979 31.56C124.595 31.688 124.003 31.896 123.203 32.184C122.403 32.44 121.523 32.76 120.563 33.144C118.707 33.848 117.619 34.296 117.299 34.488C117.043 34.68 116.803 34.936 116.579 35.256L116.147 35.832C116.051 35.864 115.907 35.88 115.715 35.88C115.555 35.912 115.395 35.928 115.235 35.928C115.075 35.928 114.867 35.944 114.611 35.976C114.099 36.008 113.699 36.04 113.411 36.072C113.123 36.104 112.787 36.104 112.403 36.072L111.635 38.136V39.576L111.683 41.544L111.923 42.024C111.987 42.184 112.051 42.36 112.115 42.552C112.211 42.744 112.307 42.92 112.403 43.08L111.443 44.904C111.347 44.936 111.171 44.984 110.915 45.048C110.755 45.08 110.547 45.08 110.291 45.048C110.067 45.048 109.811 45 109.523 44.904C109.203 44.84 108.915 44.84 108.659 44.904C108.403 45 108.163 45.112 107.939 45.24C107.747 45.4 107.555 45.544 107.363 45.672C107.203 45.8 107.059 45.864 106.931 45.864C106.771 45.864 106.595 45.88 106.403 45.912C106.211 45.944 105.987 45.976 105.731 46.008L104.483 45.144ZM119.363 29.544L120.227 26.76C120.227 25.736 120.243 24.904 120.275 24.264C120.307 23.624 120.291 22.92 120.227 22.152C120.099 22.024 119.939 21.864 119.747 21.672C119.587 21.448 119.411 21.24 119.219 21.048C119.059 20.856 118.899 20.696 118.739 20.568C118.611 20.44 118.531 20.376 118.499 20.376C118.435 20.376 118.291 20.344 118.067 20.28C117.875 20.216 117.651 20.152 117.395 20.088C117.139 20.024 116.883 19.976 116.627 19.944C116.371 19.88 116.179 19.864 116.051 19.896C116.019 19.896 115.955 19.96 115.859 20.088C115.795 20.184 115.699 20.28 115.571 20.376C115.475 20.472 115.331 20.52 115.139 20.52C114.947 20.488 114.723 20.344 114.467 20.088C114.115 19.768 113.843 19.64 113.651 19.704C113.459 19.768 113.299 19.944 113.171 20.232C113.043 20.488 112.931 20.824 112.835 21.24C112.739 21.624 112.627 21.976 112.499 22.296C112.371 22.456 112.275 22.552 112.211 22.584C112.147 22.584 112.115 22.744 112.115 23.064C112.115 23.096 112.195 23.24 112.355 23.496C112.515 23.752 112.675 24.056 112.835 24.408L112.115 25.032L111.923 32.088L113.075 32.472H115.907L119.363 29.544ZM134.829 7.992C134.893 7.736 134.925 7.496 134.925 7.272C134.957 7.016 134.989 6.76 135.021 6.504C135.021 6.28 135.021 6.088 135.021 5.928C135.053 5.768 135.069 5.624 135.069 5.496L135.309 4.968C135.405 4.936 135.533 4.92 135.693 4.92C135.853 4.92 136.045 4.904 136.269 4.872C136.941 4.84 137.373 4.76 137.565 4.632C137.565 4.6 137.645 4.536 137.805 4.44C137.901 4.344 137.981 4.28 138.045 4.248C138.077 4.248 138.189 4.264 138.381 4.296C138.573 4.328 138.829 4.392 139.149 4.488C139.693 4.616 140.077 4.68 140.301 4.68C140.589 4.68 140.749 4.664 140.781 4.632C140.813 4.6 140.909 4.6 141.069 4.632L141.501 5.448L141.933 7.896L140.925 9.576C140.893 9.608 140.861 9.64 140.829 9.672C140.829 9.704 140.797 9.736 140.733 9.768C140.573 9.864 140.381 10.008 140.157 10.2L140.013 10.344L138.573 10.488C138.381 10.424 138.157 10.36 137.901 10.296C137.645 10.2 137.341 10.088 136.989 9.96C136.637 9.832 136.333 9.72 136.077 9.624C135.821 9.496 135.597 9.4 135.405 9.336L135.165 9.096L134.829 7.992ZM140.781 16.248L140.589 17.976L140.781 18.696L140.493 19.464L140.637 20.568L140.397 21.48L140.541 21.768L140.349 23.928L140.157 28.488C140.157 28.712 140.125 29 140.061 29.352C139.997 29.672 139.949 30.024 139.917 30.408C139.885 30.76 139.885 31.128 139.917 31.512C139.949 31.864 140.045 32.168 140.205 32.424C140.173 32.904 140.125 33.464 140.061 34.104C139.997 34.744 139.885 35.48 139.725 36.312C139.469 36.664 139.197 36.984 138.909 37.272C138.653 37.528 138.157 37.672 137.421 37.704C137.005 37.736 136.589 37.768 136.173 37.8C135.789 37.832 135.421 37.88 135.069 37.944C134.877 37.976 134.685 38.008 134.493 38.04C134.301 38.072 134.093 38.12 133.869 38.184L132.669 36.648C132.701 36.488 132.749 36.056 132.813 35.352C132.909 34.616 132.989 33.752 133.053 32.76C133.117 31.768 133.149 30.712 133.149 29.592C133.181 28.472 133.149 27.432 133.053 26.472L133.341 25.56L133.773 23.448L133.917 21.768L134.205 21.192L134.253 20.76L134.541 19.464L134.781 16.824L139.101 15.144L140.781 16.248Z" fill="black"/>
<rect x="133" y="3" width="10.0268" height="9" rx="4.5" fill="#FF725E"/>
</svg>